<?xml version="1.0" encoding="UTF-8" standalone="no"?>
<!DOCTYPE svg PUBLIC "-//W3C//DTD SVG 1.1//EN"
 "http://www.w3.org/Graphics/SVG/1.1/DTD/svg11.dtd">
<!-- Generated by graphviz version 2.38.0 (20140413.2041)
 -->
<!-- Title: Tree Pages: 1 -->
<svg width="2830pt" height="581pt"
 viewBox="0.00 0.00 2830.00 581.00" xmlns="http://www.w3.org/2000/svg" xmlns:xlink="http://www.w3.org/1999/xlink">
<g id="graph0" class="graph" transform="scale(1 1) rotate(0) translate(4 577)">
<title>Tree</title>
<polygon fill="white" stroke="none" points="-4,4 -4,-577 2826,-577 2826,4 -4,4"/>
<!-- 0 -->
<g id="node1" class="node"><title>0</title>
<polygon fill="none" stroke="black" points="1342.5,-573 1223.5,-573 1223.5,-505 1342.5,-505 1342.5,-573"/>
<text text-anchor="middle" x="1283" y="-557.8" font-family="Times,serif" font-size="14.00">X[8] &lt;= &#45;0.162</text>
<text text-anchor="middle" x="1283" y="-542.8" font-family="Times,serif" font-size="14.00">entropy = 0.959</text>
<text text-anchor="middle" x="1283" y="-527.8" font-family="Times,serif" font-size="14.00">samples = 888</text>
<text text-anchor="middle" x="1283" y="-512.8" font-family="Times,serif" font-size="14.00">value = [549, 339]</text>
</g>
<!-- 1 -->
<g id="node2" class="node"><title>1</title>
<polygon fill="none" stroke="black" points="1070.5,-469 951.5,-469 951.5,-401 1070.5,-401 1070.5,-469"/>
<text text-anchor="middle" x="1011" y="-453.8" font-family="Times,serif" font-size="14.00">X[5] &lt;= &#45;0.343</text>
<text text-anchor="middle" x="1011" y="-438.8" font-family="Times,serif" font-size="14.00">entropy = 0.885</text>
<text text-anchor="middle" x="1011" y="-423.8" font-family="Times,serif" font-size="14.00">samples = 373</text>
<text text-anchor="middle" x="1011" y="-408.8" font-family="Times,serif" font-size="14.00">value = [113, 260]</text>
</g>
<!-- 0&#45;&gt;1 -->
<g id="edge1" class="edge"><title>0&#45;&gt;1</title>
<path fill="none" stroke="black" d="M1223.31,-515.616C1181.06,-499.772 1124.28,-478.48 1080.07,-461.901"/>
<polygon fill="black" stroke="black" points="1081.14,-458.566 1070.55,-458.332 1078.69,-465.121 1081.14,-458.566"/>
<text text-anchor="middle" x="1080.9" y="-477.391" font-family="Times,serif" font-size="14.00">True</text>
</g>
<!-- 24 -->
<g id="node25" class="node"><title>24</title>
<polygon fill="none" stroke="black" points="1680,-469 1568,-469 1568,-401 1680,-401 1680,-469"/>
<text text-anchor="middle" x="1624" y="-453.8" font-family="Times,serif" font-size="14.00">X[5] &lt;= 0.292</text>
<text text-anchor="middle" x="1624" y="-438.8" font-family="Times,serif" font-size="14.00">entropy = 0.618</text>
<text text-anchor="middle" x="1624" y="-423.8" font-family="Times,serif" font-size="14.00">samples = 515</text>
<text text-anchor="middle" x="1624" y="-408.8" font-family="Times,serif" font-size="14.00">value = [436, 79]</text>
</g>
<!-- 0&#45;&gt;24 -->
<g id="edge24" class="edge"><title>0&#45;&gt;24</title>
<path fill="none" stroke="black" d="M1342.79,-520.116C1403.07,-502.084 1495.89,-474.319 1558.23,-455.673"/>
<polygon fill="black" stroke="black" points="1559.38,-458.981 1567.96,-452.762 1557.38,-452.275 1559.38,-458.981"/>
<text text-anchor="middle" x="1556.09" y="-471.064" font-family="Times,serif" font-size="14.00">False</text>
</g>
<!-- 2 -->
<g id="node3" class="node"><title>2</title>
<polygon fill="none" stroke="black" points="704,-365 592,-365 592,-297 704,-297 704,-365"/>
<text text-anchor="middle" x="648" y="-349.8" font-family="Times,serif" font-size="14.00">X[29] &lt;= 1.688</text>
<text text-anchor="middle" x="648" y="-334.8" font-family="Times,serif" font-size="14.00">entropy = 0.997</text>
<text text-anchor="middle" x="648" y="-319.8" font-family="Times,serif" font-size="14.00">samples = 189</text>
<text text-anchor="middle" x="648" y="-304.8" font-family="Times,serif" font-size="14.00">value = [88, 101]</text>
</g>
<!-- 1&#45;&gt;2 -->
<g id="edge2" class="edge"><title>1&#45;&gt;2</title>
<path fill="none" stroke="black" d="M951.464,-417.271C886.188,-398.929 781.737,-369.579 714.001,-350.546"/>
<polygon fill="black" stroke="black" points="714.857,-347.151 704.283,-347.815 712.963,-353.89 714.857,-347.151"/>
</g>
<!-- 15 -->
<g id="node16" class="node"><title>15</title>
<polygon fill="none" stroke="black" points="1067,-365 955,-365 955,-297 1067,-297 1067,-365"/>
<text text-anchor="middle" x="1011" y="-349.8" font-family="Times,serif" font-size="14.00">X[36] &lt;= 1.577</text>
<text text-anchor="middle" x="1011" y="-334.8" font-family="Times,serif" font-size="14.00">entropy = 0.573</text>
<text text-anchor="middle" x="1011" y="-319.8" font-family="Times,serif" font-size="14.00">samples = 184</text>
<text text-anchor="middle" x="1011" y="-304.8" font-family="Times,serif" font-size="14.00">value = [25, 159]</text>
</g>
<!-- 1&#45;&gt;15 -->
<g id="edge15" class="edge"><title>1&#45;&gt;15</title>
<path fill="none" stroke="black" d="M1011,-400.884C1011,-392.778 1011,-383.982 1011,-375.472"/>
<polygon fill="black" stroke="black" points="1014.5,-375.299 1011,-365.299 1007.5,-375.299 1014.5,-375.299"/>
</g>
<!-- 3 -->
<g id="node4" class="node"><title>3</title>
<polygon fill="none" stroke="black" points="406.5,-261 301.5,-261 301.5,-193 406.5,-193 406.5,-261"/>
<text text-anchor="middle" x="354" y="-245.8" font-family="Times,serif" font-size="14.00">X[0] &lt;= &#45;1.529</text>
<text text-anchor="middle" x="354" y="-230.8" font-family="Times,serif" font-size="14.00">entropy = 0.916</text>
<text text-anchor="middle" x="354" y="-215.8" font-family="Times,serif" font-size="14.00">samples = 142</text>
<text text-anchor="middle" x="354" y="-200.8" font-family="Times,serif" font-size="14.00">value = [47, 95]</text>
</g>
<!-- 2&#45;&gt;3 -->
<g id="edge3" class="edge"><title>2&#45;&gt;3</title>
<path fill="none" stroke="black" d="M591.662,-310.454C541.537,-293.064 468.34,-267.669 416.445,-249.665"/>
<polygon fill="black" stroke="black" points="417.283,-246.251 406.689,-246.28 414.989,-252.864 417.283,-246.251"/>
</g>
<!-- 10 -->
<g id="node11" class="node"><title>10</title>
<polygon fill="none" stroke="black" points="700,-261 596,-261 596,-193 700,-193 700,-261"/>
<text text-anchor="middle" x="648" y="-245.8" font-family="Times,serif" font-size="14.00">X[5] &lt;= &#45;0.535</text>
<text text-anchor="middle" x="648" y="-230.8" font-family="Times,serif" font-size="14.00">entropy = 0.551</text>
<text text-anchor="middle" x="648" y="-215.8" font-family="Times,serif" font-size="14.00">samples = 47</text>
<text text-anchor="middle" x="648" y="-200.8" font-family="Times,serif" font-size="14.00">value = [41, 6]</text>
</g>
<!-- 2&#45;&gt;10 -->
<g id="edge10" class="edge"><title>2&#45;&gt;10</title>
<path fill="none" stroke="black" d="M648,-296.884C648,-288.778 648,-279.982 648,-271.472"/>
<polygon fill="black" stroke="black" points="651.5,-271.299 648,-261.299 644.5,-271.299 651.5,-271.299"/>
</g>
<!-- 4 -->
<g id="node5" class="node"><title>4</title>
<polygon fill="none" stroke="black" points="223,-157 119,-157 119,-89 223,-89 223,-157"/>
<text text-anchor="middle" x="171" y="-141.8" font-family="Times,serif" font-size="14.00">X[5] &lt;= &#45;0.511</text>
<text text-anchor="middle" x="171" y="-126.8" font-family="Times,serif" font-size="14.00">entropy = 0.222</text>
<text text-anchor="middle" x="171" y="-111.8" font-family="Times,serif" font-size="14.00">samples = 28</text>
<text text-anchor="middle" x="171" y="-96.8" font-family="Times,serif" font-size="14.00">value = [1, 27]</text>
</g>
<!-- 3&#45;&gt;4 -->
<g id="edge4" class="edge"><title>3&#45;&gt;4</title>
<path fill="none" stroke="black" d="M301.069,-196.497C279.449,-184.447 254.312,-170.436 231.932,-157.962"/>
<polygon fill="black" stroke="black" points="233.619,-154.896 223.18,-153.084 230.211,-161.01 233.619,-154.896"/>
</g>
<!-- 7 -->
<g id="node8" class="node"><title>7</title>
<polygon fill="none" stroke="black" points="406.5,-157 301.5,-157 301.5,-89 406.5,-89 406.5,-157"/>
<text text-anchor="middle" x="354" y="-141.8" font-family="Times,serif" font-size="14.00">X[12] &lt;= 0.722</text>
<text text-anchor="middle" x="354" y="-126.8" font-family="Times,serif" font-size="14.00">entropy = 0.973</text>
<text text-anchor="middle" x="354" y="-111.8" font-family="Times,serif" font-size="14.00">samples = 114</text>
<text text-anchor="middle" x="354" y="-96.8" font-family="Times,serif" font-size="14.00">value = [46, 68]</text>
</g>
<!-- 3&#45;&gt;7 -->
<g id="edge7" class="edge"><title>3&#45;&gt;7</title>
<path fill="none" stroke="black" d="M354,-192.884C354,-184.778 354,-175.982 354,-167.472"/>
<polygon fill="black" stroke="black" points="357.5,-167.299 354,-157.299 350.5,-167.299 357.5,-167.299"/>
</g>
<!-- 5 -->
<g id="node6" class="node"><title>5</title>
<polygon fill="none" stroke="black" points="104,-53 0,-53 0,-0 104,-0 104,-53"/>
<text text-anchor="middle" x="52" y="-37.8" font-family="Times,serif" font-size="14.00">entropy = 0.439</text>
<text text-anchor="middle" x="52" y="-22.8" font-family="Times,serif" font-size="14.00">samples = 11</text>
<text text-anchor="middle" x="52" y="-7.8" font-family="Times,serif" font-size="14.00">value = [1, 10]</text>
</g>
<!-- 4&#45;&gt;5 -->
<g id="edge5" class="edge"><title>4&#45;&gt;5</title>
<path fill="none" stroke="black" d="M129.38,-88.9485C117.399,-79.4346 104.352,-69.074 92.4443,-59.6175"/>
<polygon fill="black" stroke="black" points="94.4169,-56.7147 84.4092,-53.2367 90.0637,-62.1965 94.4169,-56.7147"/>
</g>
<!-- 6 -->
<g id="node7" class="node"><title>6</title>
<polygon fill="none" stroke="black" points="220,-53 122,-53 122,-0 220,-0 220,-53"/>
<text text-anchor="middle" x="171" y="-37.8" font-family="Times,serif" font-size="14.00">entropy = 0.0</text>
<text text-anchor="middle" x="171" y="-22.8" font-family="Times,serif" font-size="14.00">samples = 17</text>
<text text-anchor="middle" x="171" y="-7.8" font-family="Times,serif" font-size="14.00">value = [0, 17]</text>
</g>
<!-- 4&#45;&gt;6 -->
<g id="edge6" class="edge"><title>4&#45;&gt;6</title>
<path fill="none" stroke="black" d="M171,-88.9485C171,-80.7153 171,-71.848 171,-63.4814"/>
<polygon fill="black" stroke="black" points="174.5,-63.2367 171,-53.2367 167.5,-63.2367 174.5,-63.2367"/>
</g>
<!-- 8 -->
<g id="node9" class="node"><title>8</title>
<polygon fill="none" stroke="black" points="343.5,-53 238.5,-53 238.5,-0 343.5,-0 343.5,-53"/>
<text text-anchor="middle" x="291" y="-37.8" font-family="Times,serif" font-size="14.00">entropy = 0.987</text>
<text text-anchor="middle" x="291" y="-22.8" font-family="Times,serif" font-size="14.00">samples = 104</text>
<text text-anchor="middle" x="291" y="-7.8" font-family="Times,serif" font-size="14.00">value = [45, 59]</text>
</g>
<!-- 7&#45;&gt;8 -->
<g id="edge8" class="edge"><title>7&#45;&gt;8</title>
<path fill="none" stroke="black" d="M331.966,-88.9485C326.111,-80.1664 319.775,-70.6629 313.877,-61.815"/>
<polygon fill="black" stroke="black" points="316.617,-59.6158 308.158,-53.2367 310.793,-63.4987 316.617,-59.6158"/>
</g>
<!-- 9 -->
<g id="node10" class="node"><title>9</title>
<polygon fill="none" stroke="black" points="466,-53 362,-53 362,-0 466,-0 466,-53"/>
<text text-anchor="middle" x="414" y="-37.8" font-family="Times,serif" font-size="14.00">entropy = 0.469</text>
<text text-anchor="middle" x="414" y="-22.8" font-family="Times,serif" font-size="14.00">samples = 10</text>
<text text-anchor="middle" x="414" y="-7.8" font-family="Times,serif" font-size="14.00">value = [1, 9]</text>
</g>
<!-- 7&#45;&gt;9 -->
<g id="edge9" class="edge"><title>7&#45;&gt;9</title>
<path fill="none" stroke="black" d="M374.985,-88.9485C380.561,-80.1664 386.595,-70.6629 392.213,-61.815"/>
<polygon fill="black" stroke="black" points="395.254,-63.5549 397.659,-53.2367 389.344,-59.8028 395.254,-63.5549"/>
</g>
<!-- 11 -->
<g id="node12" class="node"><title>11</title>
<polygon fill="none" stroke="black" points="640,-157 536,-157 536,-89 640,-89 640,-157"/>
<text text-anchor="middle" x="588" y="-141.8" font-family="Times,serif" font-size="14.00">X[12] &lt;= 0.722</text>
<text text-anchor="middle" x="588" y="-126.8" font-family="Times,serif" font-size="14.00">entropy = 0.937</text>
<text text-anchor="middle" x="588" y="-111.8" font-family="Times,serif" font-size="14.00">samples = 17</text>
<text text-anchor="middle" x="588" y="-96.8" font-family="Times,serif" font-size="14.00">value = [11, 6]</text>
</g>
<!-- 10&#45;&gt;11 -->
<g id="edge11" class="edge"><title>10&#45;&gt;11</title>
<path fill="none" stroke="black" d="M628.52,-192.884C623.49,-184.332 618.008,-175.013 612.748,-166.072"/>
<polygon fill="black" stroke="black" points="615.675,-164.144 607.588,-157.299 609.641,-167.693 615.675,-164.144"/>
</g>
<!-- 14 -->
<g id="node15" class="node"><title>14</title>
<polygon fill="none" stroke="black" points="756,-149.5 658,-149.5 658,-96.5 756,-96.5 756,-149.5"/>
<text text-anchor="middle" x="707" y="-134.3" font-family="Times,serif" font-size="14.00">entropy = 0.0</text>
<text text-anchor="middle" x="707" y="-119.3" font-family="Times,serif" font-size="14.00">samples = 30</text>
<text text-anchor="middle" x="707" y="-104.3" font-family="Times,serif" font-size="14.00">value = [30, 0]</text>
</g>
<!-- 10&#45;&gt;14 -->
<g id="edge14" class="edge"><title>10&#45;&gt;14</title>
<path fill="none" stroke="black" d="M667.156,-192.884C673.581,-181.776 680.755,-169.372 687.227,-158.184"/>
<polygon fill="black" stroke="black" points="690.261,-159.929 692.238,-149.52 684.202,-156.424 690.261,-159.929"/>
</g>
<!-- 12 -->
<g id="node13" class="node"><title>12</title>
<polygon fill="none" stroke="black" points="588,-53 484,-53 484,-0 588,-0 588,-53"/>
<text text-anchor="middle" x="536" y="-37.8" font-family="Times,serif" font-size="14.00">entropy = 0.837</text>
<text text-anchor="middle" x="536" y="-22.8" font-family="Times,serif" font-size="14.00">samples = 15</text>
<text text-anchor="middle" x="536" y="-7.8" font-family="Times,serif" font-size="14.00">value = [11, 4]</text>
</g>
<!-- 11&#45;&gt;12 -->
<g id="edge12" class="edge"><title>11&#45;&gt;12</title>
<path fill="none" stroke="black" d="M569.813,-88.9485C565.031,-80.2579 559.86,-70.8608 555.035,-62.0917"/>
<polygon fill="black" stroke="black" points="558.049,-60.3105 550.162,-53.2367 551.917,-63.6853 558.049,-60.3105"/>
</g>
<!-- 13 -->
<g id="node14" class="node"><title>13</title>
<polygon fill="none" stroke="black" points="698,-53 606,-53 606,-0 698,-0 698,-53"/>
<text text-anchor="middle" x="652" y="-37.8" font-family="Times,serif" font-size="14.00">entropy = 0.0</text>
<text text-anchor="middle" x="652" y="-22.8" font-family="Times,serif" font-size="14.00">samples = 2</text>
<text text-anchor="middle" x="652" y="-7.8" font-family="Times,serif" font-size="14.00">value = [0, 2]</text>
</g>
<!-- 11&#45;&gt;13 -->
<g id="edge13" class="edge"><title>11&#45;&gt;13</title>
<path fill="none" stroke="black" d="M610.384,-88.9485C616.394,-80.0749 622.902,-70.4648 628.947,-61.5388"/>
<polygon fill="black" stroke="black" points="631.86,-63.4792 634.57,-53.2367 626.064,-59.5539 631.86,-63.4792"/>
</g>
<!-- 16 -->
<g id="node17" class="node"><title>16</title>
<polygon fill="none" stroke="black" points="1005,-261 893,-261 893,-193 1005,-193 1005,-261"/>
<text text-anchor="middle" x="949" y="-245.8" font-family="Times,serif" font-size="14.00">X[1] &lt;= &#45;0.309</text>
<text text-anchor="middle" x="949" y="-230.8" font-family="Times,serif" font-size="14.00">entropy = 0.669</text>
<text text-anchor="middle" x="949" y="-215.8" font-family="Times,serif" font-size="14.00">samples = 143</text>
<text text-anchor="middle" x="949" y="-200.8" font-family="Times,serif" font-size="14.00">value = [25, 118]</text>
</g>
<!-- 15&#45;&gt;16 -->
<g id="edge16" class="edge"><title>15&#45;&gt;16</title>
<path fill="none" stroke="black" d="M990.87,-296.884C985.673,-288.332 980.008,-279.013 974.573,-270.072"/>
<polygon fill="black" stroke="black" points="977.426,-268.027 969.241,-261.299 971.444,-271.663 977.426,-268.027"/>
</g>
<!-- 23 -->
<g id="node24" class="node"><title>23</title>
<polygon fill="none" stroke="black" points="1121,-253.5 1023,-253.5 1023,-200.5 1121,-200.5 1121,-253.5"/>
<text text-anchor="middle" x="1072" y="-238.3" font-family="Times,serif" font-size="14.00">entropy = 0.0</text>
<text text-anchor="middle" x="1072" y="-223.3" font-family="Times,serif" font-size="14.00">samples = 41</text>
<text text-anchor="middle" x="1072" y="-208.3" font-family="Times,serif" font-size="14.00">value = [0, 41]</text>
</g>
<!-- 15&#45;&gt;23 -->
<g id="edge23" class="edge"><title>15&#45;&gt;23</title>
<path fill="none" stroke="black" d="M1030.8,-296.884C1037.45,-285.776 1044.87,-273.372 1051.56,-262.184"/>
<polygon fill="black" stroke="black" points="1054.61,-263.899 1056.74,-253.52 1048.6,-260.306 1054.61,-263.899"/>
</g>
<!-- 17 -->
<g id="node18" class="node"><title>17</title>
<polygon fill="none" stroke="black" points="941,-157 829,-157 829,-89 941,-89 941,-157"/>
<text text-anchor="middle" x="885" y="-141.8" font-family="Times,serif" font-size="14.00">X[20] &lt;= &#45;0.045</text>
<text text-anchor="middle" x="885" y="-126.8" font-family="Times,serif" font-size="14.00">entropy = 0.45</text>
<text text-anchor="middle" x="885" y="-111.8" font-family="Times,serif" font-size="14.00">samples = 117</text>
<text text-anchor="middle" x="885" y="-96.8" font-family="Times,serif" font-size="14.00">value = [11, 106]</text>
</g>
<!-- 16&#45;&gt;17 -->
<g id="edge17" class="edge"><title>16&#45;&gt;17</title>
<path fill="none" stroke="black" d="M928.221,-192.884C922.8,-184.243 916.887,-174.819 911.223,-165.793"/>
<polygon fill="black" stroke="black" points="914.173,-163.91 905.894,-157.299 908.244,-167.63 914.173,-163.91"/>
</g>
<!-- 20 -->
<g id="node21" class="node"><title>20</title>
<polygon fill="none" stroke="black" points="1064.5,-157 959.5,-157 959.5,-89 1064.5,-89 1064.5,-157"/>
<text text-anchor="middle" x="1012" y="-141.8" font-family="Times,serif" font-size="14.00">X[10] &lt;= 2.985</text>
<text text-anchor="middle" x="1012" y="-126.8" font-family="Times,serif" font-size="14.00">entropy = 0.996</text>
<text text-anchor="middle" x="1012" y="-111.8" font-family="Times,serif" font-size="14.00">samples = 26</text>
<text text-anchor="middle" x="1012" y="-96.8" font-family="Times,serif" font-size="14.00">value = [14, 12]</text>
</g>
<!-- 16&#45;&gt;20 -->
<g id="edge20" class="edge"><title>16&#45;&gt;20</title>
<path fill="none" stroke="black" d="M969.454,-192.884C974.736,-184.332 980.492,-175.013 986.014,-166.072"/>
<polygon fill="black" stroke="black" points="989.156,-167.647 991.433,-157.299 983.2,-163.968 989.156,-167.647"/>
</g>
<!-- 18 -->
<g id="node19" class="node"><title>18</title>
<polygon fill="none" stroke="black" points="820,-53 716,-53 716,-0 820,-0 820,-53"/>
<text text-anchor="middle" x="768" y="-37.8" font-family="Times,serif" font-size="14.00">entropy = 0.348</text>
<text text-anchor="middle" x="768" y="-22.8" font-family="Times,serif" font-size="14.00">samples = 92</text>
<text text-anchor="middle" x="768" y="-7.8" font-family="Times,serif" font-size="14.00">value = [6, 86]</text>
</g>
<!-- 17&#45;&gt;18 -->
<g id="edge18" class="edge"><title>17&#45;&gt;18</title>
<path fill="none" stroke="black" d="M844.079,-88.9485C832.3,-79.4346 819.473,-69.074 807.765,-59.6175"/>
<polygon fill="black" stroke="black" points="809.843,-56.7973 799.864,-53.2367 805.445,-62.2429 809.843,-56.7973"/>
</g>
<!-- 19 -->
<g id="node20" class="node"><title>19</title>
<polygon fill="none" stroke="black" points="942,-53 838,-53 838,-0 942,-0 942,-53"/>
<text text-anchor="middle" x="890" y="-37.8" font-family="Times,serif" font-size="14.00">entropy = 0.722</text>
<text text-anchor="middle" x="890" y="-22.8" font-family="Times,serif" font-size="14.00">samples = 25</text>
<text text-anchor="middle" x="890" y="-7.8" font-family="Times,serif" font-size="14.00">value = [5, 20]</text>
</g>
<!-- 17&#45;&gt;19 -->
<g id="edge19" class="edge"><title>17&#45;&gt;19</title>
<path fill="none" stroke="black" d="M886.749,-88.9485C887.184,-80.7153 887.654,-71.848 888.096,-63.4814"/>
<polygon fill="black" stroke="black" points="891.605,-63.4077 888.638,-53.2367 884.615,-63.0378 891.605,-63.4077"/>
</g>
<!-- 21 -->
<g id="node22" class="node"><title>21</title>
<polygon fill="none" stroke="black" points="1052,-53 960,-53 960,-0 1052,-0 1052,-53"/>
<text text-anchor="middle" x="1006" y="-37.8" font-family="Times,serif" font-size="14.00">entropy = 0.0</text>
<text text-anchor="middle" x="1006" y="-22.8" font-family="Times,serif" font-size="14.00">samples = 7</text>
<text text-anchor="middle" x="1006" y="-7.8" font-family="Times,serif" font-size="14.00">value = [0, 7]</text>
</g>
<!-- 20&#45;&gt;21 -->
<g id="edge21" class="edge"><title>20&#45;&gt;21</title>
<path fill="none" stroke="black" d="M1009.9,-88.9485C1009.38,-80.7153 1008.82,-71.848 1008.28,-63.4814"/>
<polygon fill="black" stroke="black" points="1011.76,-62.9948 1007.63,-53.2367 1004.77,-63.4384 1011.76,-62.9948"/>
</g>
<!-- 22 -->
<g id="node23" class="node"><title>22</title>
<polygon fill="none" stroke="black" points="1174,-53 1070,-53 1070,-0 1174,-0 1174,-53"/>
<text text-anchor="middle" x="1122" y="-37.8" font-family="Times,serif" font-size="14.00">entropy = 0.831</text>
<text text-anchor="middle" x="1122" y="-22.8" font-family="Times,serif" font-size="14.00">samples = 19</text>
<text text-anchor="middle" x="1122" y="-7.8" font-family="Times,serif" font-size="14.00">value = [14, 5]</text>
</g>
<!-- 20&#45;&gt;22 -->
<g id="edge22" class="edge"><title>20&#45;&gt;22</title>
<path fill="none" stroke="black" d="M1050.47,-88.9485C1061.44,-79.526 1073.38,-69.2731 1084.3,-59.8906"/>
<polygon fill="black" stroke="black" points="1086.74,-62.408 1092.04,-53.2367 1082.18,-57.0983 1086.74,-62.408"/>
</g>
<!-- 25 -->
<g id="node26" class="node"><title>25</title>
<polygon fill="none" stroke="black" points="1680,-365 1568,-365 1568,-297 1680,-297 1680,-365"/>
<text text-anchor="middle" x="1624" y="-349.8" font-family="Times,serif" font-size="14.00">X[28] &lt;= 0.511</text>
<text text-anchor="middle" x="1624" y="-334.8" font-family="Times,serif" font-size="14.00">entropy = 0.465</text>
<text text-anchor="middle" x="1624" y="-319.8" font-family="Times,serif" font-size="14.00">samples = 415</text>
<text text-anchor="middle" x="1624" y="-304.8" font-family="Times,serif" font-size="14.00">value = [374, 41]</text>
</g>
<!-- 24&#45;&gt;25 -->
<g id="edge25" class="edge"><title>24&#45;&gt;25</title>
<path fill="none" stroke="black" d="M1624,-400.884C1624,-392.778 1624,-383.982 1624,-375.472"/>
<polygon fill="black" stroke="black" points="1627.5,-375.299 1624,-365.299 1620.5,-375.299 1627.5,-375.299"/>
</g>
<!-- 40 -->
<g id="node41" class="node"><title>40</title>
<polygon fill="none" stroke="black" points="2414.5,-365 2309.5,-365 2309.5,-297 2414.5,-297 2414.5,-365"/>
<text text-anchor="middle" x="2362" y="-349.8" font-family="Times,serif" font-size="14.00">X[0] &lt;= 1.465</text>
<text text-anchor="middle" x="2362" y="-334.8" font-family="Times,serif" font-size="14.00">entropy = 0.958</text>
<text text-anchor="middle" x="2362" y="-319.8" font-family="Times,serif" font-size="14.00">samples = 100</text>
<text text-anchor="middle" x="2362" y="-304.8" font-family="Times,serif" font-size="14.00">value = [62, 38]</text>
</g>
<!-- 24&#45;&gt;40 -->
<g id="edge40" class="edge"><title>24&#45;&gt;40</title>
<path fill="none" stroke="black" d="M1680.08,-426.25C1815.11,-407.586 2157.63,-360.246 2299.24,-340.674"/>
<polygon fill="black" stroke="black" points="2300.07,-344.093 2309.49,-339.257 2299.11,-337.159 2300.07,-344.093"/>
</g>
<!-- 26 -->
<g id="node27" class="node"><title>26</title>
<polygon fill="none" stroke="black" points="1595,-261 1483,-261 1483,-193 1595,-193 1595,-261"/>
<text text-anchor="middle" x="1539" y="-245.8" font-family="Times,serif" font-size="14.00">X[17] &lt;= 2.447</text>
<text text-anchor="middle" x="1539" y="-230.8" font-family="Times,serif" font-size="14.00">entropy = 0.518</text>
<text text-anchor="middle" x="1539" y="-215.8" font-family="Times,serif" font-size="14.00">samples = 250</text>
<text text-anchor="middle" x="1539" y="-200.8" font-family="Times,serif" font-size="14.00">value = [221, 29]</text>
</g>
<!-- 25&#45;&gt;26 -->
<g id="edge26" class="edge"><title>25&#45;&gt;26</title>
<path fill="none" stroke="black" d="M1596.4,-296.884C1589.05,-288.065 1581.03,-278.43 1573.36,-269.235"/>
<polygon fill="black" stroke="black" points="1575.84,-266.741 1566.75,-261.299 1570.46,-271.222 1575.84,-266.741"/>
</g>
<!-- 33 -->
<g id="node34" class="node"><title>33</title>
<polygon fill="none" stroke="black" points="1824,-261 1712,-261 1712,-193 1824,-193 1824,-261"/>
<text text-anchor="middle" x="1768" y="-245.8" font-family="Times,serif" font-size="14.00">X[0] &lt;= &#45;0.201</text>
<text text-anchor="middle" x="1768" y="-230.8" font-family="Times,serif" font-size="14.00">entropy = 0.376</text>
<text text-anchor="middle" x="1768" y="-215.8" font-family="Times,serif" font-size="14.00">samples = 165</text>
<text text-anchor="middle" x="1768" y="-200.8" font-family="Times,serif" font-size="14.00">value = [153, 12]</text>
</g>
<!-- 25&#45;&gt;33 -->
<g id="edge33" class="edge"><title>25&#45;&gt;33</title>
<path fill="none" stroke="black" d="M1670.75,-296.884C1684.08,-287.442 1698.73,-277.064 1712.53,-267.292"/>
<polygon fill="black" stroke="black" points="1714.85,-269.936 1720.99,-261.299 1710.81,-264.223 1714.85,-269.936"/>
</g>
<!-- 27 -->
<g id="node28" class="node"><title>27</title>
<polygon fill="none" stroke="black" points="1427,-157 1315,-157 1315,-89 1427,-89 1427,-157"/>
<text text-anchor="middle" x="1371" y="-141.8" font-family="Times,serif" font-size="14.00">X[3] &lt;= 0.147</text>
<text text-anchor="middle" x="1371" y="-126.8" font-family="Times,serif" font-size="14.00">entropy = 0.498</text>
<text text-anchor="middle" x="1371" y="-111.8" font-family="Times,serif" font-size="14.00">samples = 247</text>
<text text-anchor="middle" x="1371" y="-96.8" font-family="Times,serif" font-size="14.00">value = [220, 27]</text>
</g>
<!-- 26&#45;&gt;27 -->
<g id="edge27" class="edge"><title>26&#45;&gt;27</title>
<path fill="none" stroke="black" d="M1484.46,-192.884C1468.53,-183.214 1450.99,-172.563 1434.56,-162.587"/>
<polygon fill="black" stroke="black" points="1435.92,-159.323 1425.56,-157.125 1432.29,-165.306 1435.92,-159.323"/>
</g>
<!-- 30 -->
<g id="node31" class="node"><title>30</title>
<polygon fill="none" stroke="black" points="1593,-157 1485,-157 1485,-89 1593,-89 1593,-157"/>
<text text-anchor="middle" x="1539" y="-141.8" font-family="Times,serif" font-size="14.00">X[24] &lt;= &#45;0.505</text>
<text text-anchor="middle" x="1539" y="-126.8" font-family="Times,serif" font-size="14.00">entropy = 0.918</text>
<text text-anchor="middle" x="1539" y="-111.8" font-family="Times,serif" font-size="14.00">samples = 3</text>
<text text-anchor="middle" x="1539" y="-96.8" font-family="Times,serif" font-size="14.00">value = [1, 2]</text>
</g>
<!-- 26&#45;&gt;30 -->
<g id="edge30" class="edge"><title>26&#45;&gt;30</title>
<path fill="none" stroke="black" d="M1539,-192.884C1539,-184.778 1539,-175.982 1539,-167.472"/>
<polygon fill="black" stroke="black" points="1542.5,-167.299 1539,-157.299 1535.5,-167.299 1542.5,-167.299"/>
</g>
<!-- 28 -->
<g id="node29" class="node"><title>28</title>
<polygon fill="none" stroke="black" points="1304,-53 1192,-53 1192,-0 1304,-0 1304,-53"/>
<text text-anchor="middle" x="1248" y="-37.8" font-family="Times,serif" font-size="14.00">entropy = 0.534</text>
<text text-anchor="middle" x="1248" y="-22.8" font-family="Times,serif" font-size="14.00">samples = 222</text>
<text text-anchor="middle" x="1248" y="-7.8" font-family="Times,serif" font-size="14.00">value = [195, 27]</text>
</g>
<!-- 27&#45;&gt;28 -->
<g id="edge28" class="edge"><title>27&#45;&gt;28</title>
<path fill="none" stroke="black" d="M1327.98,-88.9485C1315.48,-79.3431 1301.85,-68.8747 1289.45,-59.345"/>
<polygon fill="black" stroke="black" points="1291.56,-56.5537 1281.5,-53.2367 1287.3,-62.1046 1291.56,-56.5537"/>
</g>
<!-- 29 -->
<g id="node30" class="node"><title>29</title>
<polygon fill="none" stroke="black" points="1420,-53 1322,-53 1322,-0 1420,-0 1420,-53"/>
<text text-anchor="middle" x="1371" y="-37.8" font-family="Times,serif" font-size="14.00">entropy = 0.0</text>
<text text-anchor="middle" x="1371" y="-22.8" font-family="Times,serif" font-size="14.00">samples = 25</text>
<text text-anchor="middle" x="1371" y="-7.8" font-family="Times,serif" font-size="14.00">value = [25, 0]</text>
</g>
<!-- 27&#45;&gt;29 -->
<g id="edge29" class="edge"><title>27&#45;&gt;29</title>
<path fill="none" stroke="black" d="M1371,-88.9485C1371,-80.7153 1371,-71.848 1371,-63.4814"/>
<polygon fill="black" stroke="black" points="1374.5,-63.2367 1371,-53.2367 1367.5,-63.2367 1374.5,-63.2367"/>
</g>
<!-- 31 -->
<g id="node32" class="node"><title>31</title>
<polygon fill="none" stroke="black" points="1530,-53 1438,-53 1438,-0 1530,-0 1530,-53"/>
<text text-anchor="middle" x="1484" y="-37.8" font-family="Times,serif" font-size="14.00">entropy = 0.0</text>
<text text-anchor="middle" x="1484" y="-22.8" font-family="Times,serif" font-size="14.00">samples = 1</text>
<text text-anchor="middle" x="1484" y="-7.8" font-family="Times,serif" font-size="14.00">value = [1, 0]</text>
</g>
<!-- 30&#45;&gt;31 -->
<g id="edge31" class="edge"><title>30&#45;&gt;31</title>
<path fill="none" stroke="black" d="M1519.76,-88.9485C1514.71,-80.2579 1509.24,-70.8608 1504.13,-62.0917"/>
<polygon fill="black" stroke="black" points="1507.03,-60.1189 1498.98,-53.2367 1500.98,-63.6401 1507.03,-60.1189"/>
</g>
<!-- 32 -->
<g id="node33" class="node"><title>32</title>
<polygon fill="none" stroke="black" points="1640,-53 1548,-53 1548,-0 1640,-0 1640,-53"/>
<text text-anchor="middle" x="1594" y="-37.8" font-family="Times,serif" font-size="14.00">entropy = 0.0</text>
<text text-anchor="middle" x="1594" y="-22.8" font-family="Times,serif" font-size="14.00">samples = 2</text>
<text text-anchor="middle" x="1594" y="-7.8" font-family="Times,serif" font-size="14.00">value = [0, 2]</text>
</g>
<!-- 30&#45;&gt;32 -->
<g id="edge32" class="edge"><title>30&#45;&gt;32</title>
<path fill="none" stroke="black" d="M1558.24,-88.9485C1563.29,-80.2579 1568.76,-70.8608 1573.87,-62.0917"/>
<polygon fill="black" stroke="black" points="1577.02,-63.6401 1579.02,-53.2367 1570.97,-60.1189 1577.02,-63.6401"/>
</g>
<!-- 34 -->
<g id="node35" class="node"><title>34</title>
<polygon fill="none" stroke="black" points="1820,-157 1716,-157 1716,-89 1820,-89 1820,-157"/>
<text text-anchor="middle" x="1768" y="-141.8" font-family="Times,serif" font-size="14.00">X[5] &lt;= &#45;0.49</text>
<text text-anchor="middle" x="1768" y="-126.8" font-family="Times,serif" font-size="14.00">entropy = 0.154</text>
<text text-anchor="middle" x="1768" y="-111.8" font-family="Times,serif" font-size="14.00">samples = 45</text>
<text text-anchor="middle" x="1768" y="-96.8" font-family="Times,serif" font-size="14.00">value = [44, 1]</text>
</g>
<!-- 33&#45;&gt;34 -->
<g id="edge34" class="edge"><title>33&#45;&gt;34</title>
<path fill="none" stroke="black" d="M1768,-192.884C1768,-184.778 1768,-175.982 1768,-167.472"/>
<polygon fill="black" stroke="black" points="1771.5,-167.299 1768,-157.299 1764.5,-167.299 1771.5,-167.299"/>
</g>
<!-- 37 -->
<g id="node38" class="node"><title>37</title>
<polygon fill="none" stroke="black" points="2008,-157 1896,-157 1896,-89 2008,-89 2008,-157"/>
<text text-anchor="middle" x="1952" y="-141.8" font-family="Times,serif" font-size="14.00">X[2] &lt;= 0.884</text>
<text text-anchor="middle" x="1952" y="-126.8" font-family="Times,serif" font-size="14.00">entropy = 0.442</text>
<text text-anchor="middle" x="1952" y="-111.8" font-family="Times,serif" font-size="14.00">samples = 120</text>
<text text-anchor="middle" x="1952" y="-96.8" font-family="Times,serif" font-size="14.00">value = [109, 11]</text>
</g>
<!-- 33&#45;&gt;37 -->
<g id="edge37" class="edge"><title>33&#45;&gt;37</title>
<path fill="none" stroke="black" d="M1824.21,-194.842C1844,-183.87 1866.41,-171.446 1886.88,-160.1"/>
<polygon fill="black" stroke="black" points="1888.77,-163.052 1895.82,-155.142 1885.38,-156.93 1888.77,-163.052"/>
</g>
<!-- 35 -->
<g id="node36" class="node"><title>35</title>
<polygon fill="none" stroke="black" points="1762,-53 1658,-53 1658,-0 1762,-0 1762,-53"/>
<text text-anchor="middle" x="1710" y="-37.8" font-family="Times,serif" font-size="14.00">entropy = 0.722</text>
<text text-anchor="middle" x="1710" y="-22.8" font-family="Times,serif" font-size="14.00">samples = 5</text>
<text text-anchor="middle" x="1710" y="-7.8" font-family="Times,serif" font-size="14.00">value = [4, 1]</text>
</g>
<!-- 34&#45;&gt;35 -->
<g id="edge35" class="edge"><title>34&#45;&gt;35</title>
<path fill="none" stroke="black" d="M1747.71,-88.9485C1742.32,-80.1664 1736.49,-70.6629 1731.06,-61.815"/>
<polygon fill="black" stroke="black" points="1734.01,-59.9287 1725.8,-53.2367 1728.04,-63.5903 1734.01,-59.9287"/>
</g>
<!-- 36 -->
<g id="node37" class="node"><title>36</title>
<polygon fill="none" stroke="black" points="1878,-53 1780,-53 1780,-0 1878,-0 1878,-53"/>
<text text-anchor="middle" x="1829" y="-37.8" font-family="Times,serif" font-size="14.00">entropy = 0.0</text>
<text text-anchor="middle" x="1829" y="-22.8" font-family="Times,serif" font-size="14.00">samples = 40</text>
<text text-anchor="middle" x="1829" y="-7.8" font-family="Times,serif" font-size="14.00">value = [40, 0]</text>
</g>
<!-- 34&#45;&gt;36 -->
<g id="edge36" class="edge"><title>34&#45;&gt;36</title>
<path fill="none" stroke="black" d="M1789.33,-88.9485C1795,-80.1664 1801.14,-70.6629 1806.85,-61.815"/>
<polygon fill="black" stroke="black" points="1809.9,-63.5365 1812.39,-53.2367 1804.02,-59.7402 1809.9,-63.5365"/>
</g>
<!-- 38 -->
<g id="node39" class="node"><title>38</title>
<polygon fill="none" stroke="black" points="2008,-53 1896,-53 1896,-0 2008,-0 2008,-53"/>
<text text-anchor="middle" x="1952" y="-37.8" font-family="Times,serif" font-size="14.00">entropy = 0.419</text>
<text text-anchor="middle" x="1952" y="-22.8" font-family="Times,serif" font-size="14.00">samples = 118</text>
<text text-anchor="middle" x="1952" y="-7.8" font-family="Times,serif" font-size="14.00">value = [108, 10]</text>
</g>
<!-- 37&#45;&gt;38 -->
<g id="edge38" class="edge"><title>37&#45;&gt;38</title>
<path fill="none" stroke="black" d="M1952,-88.9485C1952,-80.7153 1952,-71.848 1952,-63.4814"/>
<polygon fill="black" stroke="black" points="1955.5,-63.2367 1952,-53.2367 1948.5,-63.2367 1955.5,-63.2367"/>
</g>
<!-- 39 -->
<g id="node40" class="node"><title>39</title>
<polygon fill="none" stroke="black" points="2118,-53 2026,-53 2026,-0 2118,-0 2118,-53"/>
<text text-anchor="middle" x="2072" y="-37.8" font-family="Times,serif" font-size="14.00">entropy = 1.0</text>
<text text-anchor="middle" x="2072" y="-22.8" font-family="Times,serif" font-size="14.00">samples = 2</text>
<text text-anchor="middle" x="2072" y="-7.8" font-family="Times,serif" font-size="14.00">value = [1, 1]</text>
</g>
<!-- 37&#45;&gt;39 -->
<g id="edge39" class="edge"><title>37&#45;&gt;39</title>
<path fill="none" stroke="black" d="M1993.97,-88.9485C2006.05,-79.4346 2019.21,-69.074 2031.22,-59.6175"/>
<polygon fill="black" stroke="black" points="2033.63,-62.1734 2039.32,-53.2367 2029.3,-56.6739 2033.63,-62.1734"/>
</g>
<!-- 41 -->
<g id="node42" class="node"><title>41</title>
<polygon fill="none" stroke="black" points="2414.5,-261 2309.5,-261 2309.5,-193 2414.5,-193 2414.5,-261"/>
<text text-anchor="middle" x="2362" y="-245.8" font-family="Times,serif" font-size="14.00">X[5] &lt;= 0.461</text>
<text text-anchor="middle" x="2362" y="-230.8" font-family="Times,serif" font-size="14.00">entropy = 0.994</text>
<text text-anchor="middle" x="2362" y="-215.8" font-family="Times,serif" font-size="14.00">samples = 77</text>
<text text-anchor="middle" x="2362" y="-200.8" font-family="Times,serif" font-size="14.00">value = [42, 35]</text>
</g>
<!-- 40&#45;&gt;41 -->
<g id="edge41" class="edge"><title>40&#45;&gt;41</title>
<path fill="none" stroke="black" d="M2362,-296.884C2362,-288.778 2362,-279.982 2362,-271.472"/>
<polygon fill="black" stroke="black" points="2365.5,-271.299 2362,-261.299 2358.5,-271.299 2365.5,-271.299"/>
</g>
<!-- 48 -->
<g id="node49" class="node"><title>48</title>
<polygon fill="none" stroke="black" points="2706,-261 2602,-261 2602,-193 2706,-193 2706,-261"/>
<text text-anchor="middle" x="2654" y="-245.8" font-family="Times,serif" font-size="14.00">X[5] &lt;= 0.45</text>
<text text-anchor="middle" x="2654" y="-230.8" font-family="Times,serif" font-size="14.00">entropy = 0.559</text>
<text text-anchor="middle" x="2654" y="-215.8" font-family="Times,serif" font-size="14.00">samples = 23</text>
<text text-anchor="middle" x="2654" y="-200.8" font-family="Times,serif" font-size="14.00">value = [20, 3]</text>
</g>
<!-- 40&#45;&gt;48 -->
<g id="edge48" class="edge"><title>40&#45;&gt;48</title>
<path fill="none" stroke="black" d="M2414.54,-311.647C2464.47,-294.206 2539.55,-267.978 2592.3,-249.552"/>
<polygon fill="black" stroke="black" points="2593.59,-252.808 2601.88,-246.206 2591.29,-246.2 2593.59,-252.808"/>
</g>
<!-- 42 -->
<g id="node43" class="node"><title>42</title>
<polygon fill="none" stroke="black" points="2353,-157 2249,-157 2249,-89 2353,-89 2353,-157"/>
<text text-anchor="middle" x="2301" y="-141.8" font-family="Times,serif" font-size="14.00">X[19] &lt;= 1.013</text>
<text text-anchor="middle" x="2301" y="-126.8" font-family="Times,serif" font-size="14.00">entropy = 0.863</text>
<text text-anchor="middle" x="2301" y="-111.8" font-family="Times,serif" font-size="14.00">samples = 28</text>
<text text-anchor="middle" x="2301" y="-96.8" font-family="Times,serif" font-size="14.00">value = [8, 20]</text>
</g>
<!-- 41&#45;&gt;42 -->
<g id="edge42" class="edge"><title>41&#45;&gt;42</title>
<path fill="none" stroke="black" d="M2342.2,-192.884C2337.08,-184.332 2331.51,-175.013 2326.16,-166.072"/>
<polygon fill="black" stroke="black" points="2329.05,-164.085 2320.91,-157.299 2323.04,-167.678 2329.05,-164.085"/>
</g>
<!-- 45 -->
<g id="node46" class="node"><title>45</title>
<polygon fill="none" stroke="black" points="2476.5,-157 2371.5,-157 2371.5,-89 2476.5,-89 2476.5,-157"/>
<text text-anchor="middle" x="2424" y="-141.8" font-family="Times,serif" font-size="14.00">X[5] &lt;= 2.237</text>
<text text-anchor="middle" x="2424" y="-126.8" font-family="Times,serif" font-size="14.00">entropy = 0.889</text>
<text text-anchor="middle" x="2424" y="-111.8" font-family="Times,serif" font-size="14.00">samples = 49</text>
<text text-anchor="middle" x="2424" y="-96.8" font-family="Times,serif" font-size="14.00">value = [34, 15]</text>
</g>
<!-- 41&#45;&gt;45 -->
<g id="edge45" class="edge"><title>41&#45;&gt;45</title>
<path fill="none" stroke="black" d="M2382.13,-192.884C2387.33,-184.332 2392.99,-175.013 2398.43,-166.072"/>
<polygon fill="black" stroke="black" points="2401.56,-167.663 2403.76,-157.299 2395.57,-164.027 2401.56,-167.663"/>
</g>
<!-- 43 -->
<g id="node44" class="node"><title>43</title>
<polygon fill="none" stroke="black" points="2240,-53 2136,-53 2136,-0 2240,-0 2240,-53"/>
<text text-anchor="middle" x="2188" y="-37.8" font-family="Times,serif" font-size="14.00">entropy = 0.918</text>
<text text-anchor="middle" x="2188" y="-22.8" font-family="Times,serif" font-size="14.00">samples = 24</text>
<text text-anchor="middle" x="2188" y="-7.8" font-family="Times,serif" font-size="14.00">value = [8, 16]</text>
</g>
<!-- 42&#45;&gt;43 -->
<g id="edge43" class="edge"><title>42&#45;&gt;43</title>
<path fill="none" stroke="black" d="M2261.48,-88.9485C2250.21,-79.526 2237.95,-69.2731 2226.73,-59.8906"/>
<polygon fill="black" stroke="black" points="2228.69,-56.967 2218.78,-53.2367 2224.2,-62.3368 2228.69,-56.967"/>
</g>
<!-- 44 -->
<g id="node45" class="node"><title>44</title>
<polygon fill="none" stroke="black" points="2350,-53 2258,-53 2258,-0 2350,-0 2350,-53"/>
<text text-anchor="middle" x="2304" y="-37.8" font-family="Times,serif" font-size="14.00">entropy = 0.0</text>
<text text-anchor="middle" x="2304" y="-22.8" font-family="Times,serif" font-size="14.00">samples = 4</text>
<text text-anchor="middle" x="2304" y="-7.8" font-family="Times,serif" font-size="14.00">value = [0, 4]</text>
</g>
<!-- 42&#45;&gt;44 -->
<g id="edge44" class="edge"><title>42&#45;&gt;44</title>
<path fill="none" stroke="black" d="M2302.05,-88.9485C2302.31,-80.7153 2302.59,-71.848 2302.86,-63.4814"/>
<polygon fill="black" stroke="black" points="2306.36,-63.3428 2303.18,-53.2367 2299.37,-63.1206 2306.36,-63.3428"/>
</g>
<!-- 46 -->
<g id="node47" class="node"><title>46</title>
<polygon fill="none" stroke="black" points="2473.5,-53 2368.5,-53 2368.5,-0 2473.5,-0 2473.5,-53"/>
<text text-anchor="middle" x="2421" y="-37.8" font-family="Times,serif" font-size="14.00">entropy = 0.94</text>
<text text-anchor="middle" x="2421" y="-22.8" font-family="Times,serif" font-size="14.00">samples = 42</text>
<text text-anchor="middle" x="2421" y="-7.8" font-family="Times,serif" font-size="14.00">value = [27, 15]</text>
</g>
<!-- 45&#45;&gt;46 -->
<g id="edge46" class="edge"><title>45&#45;&gt;46</title>
<path fill="none" stroke="black" d="M2422.95,-88.9485C2422.69,-80.7153 2422.41,-71.848 2422.14,-63.4814"/>
<polygon fill="black" stroke="black" points="2425.63,-63.1206 2421.82,-53.2367 2418.64,-63.3428 2425.63,-63.1206"/>
</g>
<!-- 47 -->
<g id="node48" class="node"><title>47</title>
<polygon fill="none" stroke="black" points="2584,-53 2492,-53 2492,-0 2584,-0 2584,-53"/>
<text text-anchor="middle" x="2538" y="-37.8" font-family="Times,serif" font-size="14.00">entropy = 0.0</text>
<text text-anchor="middle" x="2538" y="-22.8" font-family="Times,serif" font-size="14.00">samples = 7</text>
<text text-anchor="middle" x="2538" y="-7.8" font-family="Times,serif" font-size="14.00">value = [7, 0]</text>
</g>
<!-- 45&#45;&gt;47 -->
<g id="edge47" class="edge"><title>45&#45;&gt;47</title>
<path fill="none" stroke="black" d="M2463.87,-88.9485C2475.24,-79.526 2487.61,-69.2731 2498.93,-59.8906"/>
<polygon fill="black" stroke="black" points="2501.49,-62.3132 2506.95,-53.2367 2497.02,-56.924 2501.49,-62.3132"/>
</g>
<!-- 49 -->
<g id="node50" class="node"><title>49</title>
<polygon fill="none" stroke="black" points="2706,-157 2602,-157 2602,-89 2706,-89 2706,-157"/>
<text text-anchor="middle" x="2654" y="-141.8" font-family="Times,serif" font-size="14.00">X[14] &lt;= 2.406</text>
<text text-anchor="middle" x="2654" y="-126.8" font-family="Times,serif" font-size="14.00">entropy = 0.881</text>
<text text-anchor="middle" x="2654" y="-111.8" font-family="Times,serif" font-size="14.00">samples = 10</text>
<text text-anchor="middle" x="2654" y="-96.8" font-family="Times,serif" font-size="14.00">value = [7, 3]</text>
</g>
<!-- 48&#45;&gt;49 -->
<g id="edge49" class="edge"><title>48&#45;&gt;49</title>
<path fill="none" stroke="black" d="M2654,-192.884C2654,-184.778 2654,-175.982 2654,-167.472"/>
<polygon fill="black" stroke="black" points="2657.5,-167.299 2654,-157.299 2650.5,-167.299 2657.5,-167.299"/>
</g>
<!-- 52 -->
<g id="node53" class="node"><title>52</title>
<polygon fill="none" stroke="black" points="2822,-149.5 2724,-149.5 2724,-96.5 2822,-96.5 2822,-149.5"/>
<text text-anchor="middle" x="2773" y="-134.3" font-family="Times,serif" font-size="14.00">entropy = 0.0</text>
<text text-anchor="middle" x="2773" y="-119.3" font-family="Times,serif" font-size="14.00">samples = 13</text>
<text text-anchor="middle" x="2773" y="-104.3" font-family="Times,serif" font-size="14.00">value = [13, 0]</text>
</g>
<!-- 48&#45;&gt;52 -->
<g id="edge52" class="edge"><title>48&#45;&gt;52</title>
<path fill="none" stroke="black" d="M2692.64,-192.884C2706.36,-181.116 2721.79,-167.894 2735.43,-156.203"/>
<polygon fill="black" stroke="black" points="2737.91,-158.685 2743.23,-149.52 2733.36,-153.37 2737.91,-158.685"/>
</g>
<!-- 50 -->
<g id="node51" class="node"><title>50</title>
<polygon fill="none" stroke="black" points="2706,-53 2602,-53 2602,-0 2706,-0 2706,-53"/>
<text text-anchor="middle" x="2654" y="-37.8" font-family="Times,serif" font-size="14.00">entropy = 0.764</text>
<text text-anchor="middle" x="2654" y="-22.8" font-family="Times,serif" font-size="14.00">samples = 9</text>
<text text-anchor="middle" x="2654" y="-7.8" font-family="Times,serif" font-size="14.00">value = [7, 2]</text>
</g>
<!-- 49&#45;&gt;50 -->
<g id="edge50" class="edge"><title>49&#45;&gt;50</title>
<path fill="none" stroke="black" d="M2654,-88.9485C2654,-80.7153 2654,-71.848 2654,-63.4814"/>
<polygon fill="black" stroke="black" points="2657.5,-63.2367 2654,-53.2367 2650.5,-63.2367 2657.5,-63.2367"/>
</g>
<!-- 51 -->
<g id="node52" class="node"><title>51</title>
<polygon fill="none" stroke="black" points="2816,-53 2724,-53 2724,-0 2816,-0 2816,-53"/>
<text text-anchor="middle" x="2770" y="-37.8" font-family="Times,serif" font-size="14.00">entropy = 0.0</text>
<text text-anchor="middle" x="2770" y="-22.8" font-family="Times,serif" font-size="14.00">samples = 1</text>
<text text-anchor="middle" x="2770" y="-7.8" font-family="Times,serif" font-size="14.00">value = [0, 1]</text>
</g>
<!-- 49&#45;&gt;51 -->
<g id="edge51" class="edge"><title>49&#45;&gt;51</title>
<path fill="none" stroke="black" d="M2694.57,-88.9485C2706.25,-79.4346 2718.97,-69.074 2730.58,-59.6175"/>
<polygon fill="black" stroke="black" points="2732.87,-62.2663 2738.41,-53.2367 2728.44,-56.8392 2732.87,-62.2663"/>
</g>
</g>
</svg>
